<?xml version="1.0" standalone="no"?>
<!DOCTYPE svg PUBLIC "-//W3C//DTD SVG 20010904//EN"
 "http://www.w3.org/TR/2001/REC-SVG-20010904/DTD/svg10.dtd">
<svg version="1.0" xmlns="http://www.w3.org/2000/svg"
 width="343.000000pt" height="378.000000pt" viewBox="0 0 343.000000 378.000000"
 preserveAspectRatio="xMidYMid meet">

<g transform="translate(0.000000,378.000000) scale(0.100000,-0.100000)"
fill="#000000" stroke="none">
<path d="M2128 3434 c65 -32 152 -115 181 -172 61 -119 64 -245 10 -408 -64
-193 -179 -361 -524 -764 -448 -524 -553 -705 -543 -936 6 -149 66 -242 182
-280 84 -28 183 -7 247 53 27 25 133 55 379 108 63 14 223 50 355 80 231 53
294 68 617 138 80 18 149 35 152 38 5 5 -20 168 -27 175 -2 2 -20 1 -41 -3
l-37 -6 6 -51 7 -52 -219 -48 c-273 -60 -813 -183 -1041 -237 -140 -33 -180
-46 -205 -69 -45 -39 -70 -50 -112 -50 -83 0 -125 51 -133 160 -12 179 123
435 418 789 490 587 600 757 655 1004 19 85 17 210 -4 279 -40 130 -189 251
-336 273 l-40 6 53 -27z"/>
<path d="M1016 3423 c-65 -19 -128 -63 -163 -113 -16 -23 -36 -40 -48 -40 -39
0 -121 -48 -163 -94 -61 -66 -84 -124 -90 -221 l-5 -80 -65 -69 c-84 -89 -116
-157 -119 -254 -1 -58 -8 -85 -32 -133 -37 -74 -47 -149 -31 -234 12 -61 11
-68 -11 -118 -20 -44 -24 -68 -24 -158 0 -102 1 -108 38 -182 27 -55 53 -90
92 -124 43 -38 55 -54 55 -78 1 -93 56 -215 122 -271 33 -27 120 -74 139 -74
6 0 30 -22 54 -48 24 -27 72 -64 107 -82 54 -29 75 -35 148 -38 48 -2 104 1
129 8 41 11 43 13 37 42 -3 18 -7 33 -9 34 -2 2 -25 -4 -52 -12 -106 -33 -256
15 -314 100 -23 33 -40 46 -74 56 -81 22 -152 81 -192 159 -23 46 -33 149 -14
154 8 2 28 8 45 14 37 12 69 2 106 -34 28 -27 36 -57 18 -68 -15 -9 -12 -41 5
-55 12 -10 21 -10 40 -2 32 15 32 42 0 70 -14 12 -25 28 -25 36 0 8 -16 28
-35 45 -28 24 -45 31 -79 31 -28 0 -48 6 -57 16 -19 23 -24 134 -7 157 12 17
15 16 58 -5 42 -21 89 -26 185 -18 11 1 32 -2 47 -5 23 -6 29 -3 39 19 9 20 9
29 -1 41 -17 21 -60 15 -74 -10 -17 -30 -27 -35 -82 -35 -63 0 -142 38 -183
87 -27 32 -52 98 -55 142 0 10 -20 42 -43 73 -24 30 -50 74 -59 99 -20 58 -21
164 -1 212 l16 38 44 -46 c48 -50 61 -54 76 -26 9 15 4 26 -24 55 -44 47 -70
127 -61 187 7 48 54 140 74 147 7 2 12 -7 12 -25 1 -38 24 -100 46 -124 11
-13 17 -32 16 -49 -5 -46 56 -65 72 -23 11 27 -4 53 -28 53 -54 0 -110 131
-85 198 12 32 58 82 75 82 6 0 15 -7 18 -16 14 -36 14 -6 0 46 -14 54 -14 54
14 83 33 36 96 67 137 67 23 0 34 -7 47 -30 20 -35 40 -38 68 -10 16 16 18 24
9 44 -13 28 -39 38 -63 24 -10 -6 -42 -11 -71 -11 -43 -2 -63 -9 -99 -34 -26
-18 -48 -33 -50 -33 -2 0 0 17 4 38 21 111 124 212 219 212 33 0 84 -38 106
-79 26 -52 28 -96 6 -156 -39 -103 -19 -239 47 -316 l26 -32 -25 8 c-13 4 -67
31 -119 61 -53 29 -111 57 -129 60 -20 4 -36 14 -38 25 -11 40 -64 32 -78 -12
-13 -40 32 -64 65 -34 15 13 22 13 57 1 22 -8 76 -35 119 -60 44 -25 103 -51
133 -58 38 -9 57 -19 64 -35 20 -44 82 -30 75 17 -4 33 -32 48 -58 32 -25 -16
-45 -4 -83 48 -78 109 -76 271 5 358 29 30 93 30 139 -1 28 -19 34 -29 34 -57
0 -31 3 -35 28 -38 23 -3 27 0 27 22 0 15 -8 30 -19 36 -11 5 -22 19 -26 29
-7 23 -63 51 -101 51 -27 0 -27 1 -9 14 11 7 46 22 78 32 31 10 57 21 57 26 0
23 -122 -20 -178 -62 l-51 -39 -10 32 c-24 82 -24 86 14 124 27 27 39 33 47
25 34 -34 107 8 77 44 -16 19 -69 19 -69 -1 0 -8 -15 -21 -33 -29 -19 -7 -42
-25 -53 -40 l-19 -26 -32 21 c-18 12 -33 24 -33 28 0 5 13 26 29 48 86 119
291 130 375 20 39 -51 47 -110 45 -353 l-2 -224 -34 0 c-45 0 -103 30 -142 75
-25 29 -31 43 -26 65 7 33 -15 61 -44 53 -37 -10 -35 -72 3 -73 6 -1 20 -15
31 -32 30 -48 84 -86 140 -99 28 -6 56 -13 63 -15 9 -3 12 -40 12 -144 l0
-140 -46 -30 c-64 -40 -120 -47 -177 -22 -47 21 -84 63 -72 82 4 6 4 22 1 36
-5 20 -12 25 -34 22 -23 -2 -27 -8 -27 -33 0 -22 6 -33 23 -40 12 -5 25 -18
28 -27 7 -24 55 -57 93 -64 30 -6 54 -24 32 -24 -20 0 -69 -51 -89 -93 -11
-23 -31 -48 -45 -56 -21 -11 -30 -10 -74 12 -86 44 -157 141 -170 232 -5 39
-2 49 16 66 35 33 22 79 -24 79 -40 0 -60 -45 -31 -69 7 -6 16 -36 19 -66 7
-69 57 -165 111 -211 l40 -34 -67 0 c-36 0 -77 -4 -91 -10 -21 -8 -33 -5 -63
16 -31 21 -48 25 -94 23 -30 -1 -61 1 -68 5 -7 4 -23 5 -37 2 -28 -7 -33 -46
-9 -66 19 -16 65 1 65 24 0 30 87 27 138 -5 24 -15 27 -24 12 -34 -30 -18 -52
-90 -55 -179 -3 -96 3 -116 39 -116 51 0 62 52 16 78 -37 21 -46 59 -29 119
31 113 146 159 289 117 30 -9 61 -25 68 -35 31 -44 83 -5 61 45 -9 19 -9 32 1
56 16 38 91 106 127 115 15 3 45 15 67 26 22 10 44 19 49 19 5 0 7 -50 5 -112
l-3 -113 -61 -60 c-84 -83 -189 -145 -243 -145 -55 0 -77 13 -84 48 -7 34 -30
46 -58 32 -37 -20 -13 -91 27 -76 8 3 28 -1 44 -9 16 -8 48 -15 71 -15 35 0
40 -2 34 -17 -14 -35 -17 -111 -5 -147 6 -19 25 -47 42 -61 17 -14 29 -27 27
-28 -2 -2 -23 -18 -45 -35 -64 -49 -149 -42 -176 15 -23 48 -78 39 -78 -13 0
-30 27 -45 58 -33 17 6 30 5 45 -6 12 -8 40 -15 62 -15 l42 0 -16 -49 c-12
-36 -22 -51 -38 -56 -60 -15 -132 -114 -133 -181 0 -19 -6 -34 -15 -38 -21 -8
-19 -32 6 -57 20 -20 22 -20 40 -3 24 22 24 38 0 61 -17 16 -17 22 -6 68 10
37 25 60 59 93 26 24 52 42 59 39 6 -2 15 -24 18 -48 4 -24 17 -61 29 -81 13
-23 19 -45 15 -57 -8 -28 38 -59 60 -41 29 24 11 70 -26 70 -21 0 -55 68 -65
127 -10 63 18 135 74 189 37 35 54 44 82 44 42 1 105 22 129 44 27 24 31 20
31 -31 l0 -46 30 42 30 41 -2 773 c-3 771 -3 772 -25 813 -63 119 -206 171
-347 127z m314 -1496 l0 -163 -27 -26 c-63 -59 -125 -72 -180 -38 -42 25 -63
68 -63 125 0 68 20 96 117 162 48 34 97 70 107 82 41 46 46 32 46 -142z m-881
43 c14 0 20 -10 23 -45 3 -25 18 -64 33 -86 23 -35 25 -45 16 -66 -14 -31 -14
-91 0 -132 15 -43 6 -49 -37 -26 -52 28 -110 98 -135 164 -25 64 -30 196 -10
245 l12 29 40 -41 c22 -23 48 -42 58 -42z"/>
<path d="M2579 3041 l-46 -29 -6 -74 c-9 -120 -74 -284 -179 -451 -87 -139
-162 -237 -424 -552 -281 -339 -401 -523 -440 -676 -17 -65 -24 -202 -11 -215
4 -4 96 80 205 187 310 306 609 537 887 685 50 26 92 49 94 50 6 5 -20 1016
-27 1061 l-7 42 -46 -28z"/>
<path d="M1558 2723 c6 -2 18 -2 25 0 6 3 1 5 -13 5 -14 0 -19 -2 -12 -5z"/>
<path d="M1570 2679 c0 -5 5 -7 10 -4 6 3 10 8 10 11 0 2 -4 4 -10 4 -5 0 -10
-5 -10 -11z"/>
<path d="M1810 2640 c-8 -5 -16 -14 -16 -20 -1 -5 -2 -15 -3 -21 0 -5 -6 -7
-13 -3 -7 4 -8 3 -4 -4 4 -7 14 -12 22 -12 8 0 14 -4 14 -10 0 -5 0 -13 0 -17
0 -5 -6 -8 -12 -8 -7 0 -17 -10 -23 -23 -5 -12 -18 -25 -27 -28 -10 -3 -18
-12 -18 -20 0 -14 -2 -13 -16 0 -8 9 -12 22 -8 28 4 7 4 10 0 6 -5 -4 -20 -2
-34 3 -17 7 -29 6 -36 -1 -5 -5 -17 -10 -25 -10 -14 0 -14 1 -1 10 12 8 12 10
-5 10 -17 0 -17 2 -5 10 11 7 7 10 -17 10 -31 0 -33 2 -33 34 0 19 -4 37 -9
40 -12 8 -21 -55 -18 -127 1 -36 -2 -57 -9 -57 -7 0 -10 22 -8 60 1 33 -2 60
-6 60 -5 0 -11 10 -13 23 -2 12 -5 -148 -6 -355 0 -208 1 -378 3 -378 2 0 44
51 94 114 69 87 87 116 75 120 -8 3 -20 3 -26 -1 -7 -3 -9 -3 -5 1 4 5 -12 22
-35 40 -23 18 -43 42 -45 54 -5 30 21 29 42 -3 9 -14 35 -37 57 -52 l41 -27
49 54 c42 47 48 59 43 85 -14 69 -60 111 -175 159 -55 22 -66 31 -62 46 4 16
9 18 24 9 11 -5 23 -8 27 -5 5 3 16 -4 25 -15 22 -25 86 -25 137 1 42 21 69
55 48 62 -17 6 12 60 39 73 18 9 20 14 10 25 -9 10 -9 11 1 6 14 -9 17 20 2
29 -5 3 -10 2 -10 -4 0 -6 -8 -7 -17 -4 -14 5 -12 8 10 16 15 5 25 13 21 18
-7 12 -25 11 -44 -1z m-130 -161 c0 -5 -4 -9 -10 -9 -5 0 -10 7 -10 16 0 8 5
12 10 9 6 -3 10 -10 10 -16z m-30 7 c0 -11 -19 -15 -25 -6 -3 5 1 10 9 10 9 0
16 -2 16 -4z m129 -25 c-15 -5 -22 6 -14 19 6 9 10 9 16 -1 5 -8 4 -15 -2 -18z"/>
<path d="M1667 2609 c8 -29 32 -45 46 -30 9 10 9 12 -3 9 -8 -2 -14 3 -12 10
1 8 -2 11 -9 6 -8 -5 -10 -2 -7 8 4 8 1 15 -7 15 -7 0 -10 -8 -8 -18z"/>
<path d="M1627 2553 c-10 -9 -9 -23 1 -23 5 0 9 7 9 15 0 17 -1 18 -10 8z"/>
<path d="M1660 2540 c0 -5 5 -10 10 -10 6 0 10 5 10 10 0 6 -4 10 -10 10 -5 0
-10 -4 -10 -10z"/>
<path d="M1710 2540 c0 -13 18 -22 24 -11 3 5 -1 11 -9 15 -8 3 -15 1 -15 -4z"/>
<path d="M1882 2490 c-7 -11 -19 -20 -27 -20 -8 0 -15 -4 -15 -9 0 -17 -64
-71 -98 -82 l-35 -12 28 -20 c15 -11 40 -40 55 -63 l27 -43 25 27 c45 50 98
120 98 130 0 5 7 13 16 16 8 3 12 10 9 16 -4 6 -11 8 -16 5 -5 -3 -6 1 -3 9 4
12 0 16 -16 16 -11 0 -18 -4 -15 -10 3 -5 2 -10 -4 -10 -6 0 -15 9 -21 20 -8
16 -8 18 4 14 10 -4 14 1 13 15 -2 26 -9 27 -25 1z"/>
<path d="M1945 2490 c-3 -5 1 -10 10 -10 9 0 13 5 10 10 -3 6 -8 10 -10 10 -2
0 -7 -4 -10 -10z"/>
<path d="M1977 2472 c-10 -10 -17 -23 -17 -28 0 -5 6 -2 13 7 7 9 16 16 22 17
12 1 20 22 7 22 -5 0 -16 -8 -25 -18z"/>
</g>
</svg>
